<svg xmlns="http://www.w3.org/2000/svg" version="1.1" xmlns:xlink="http://www.w3.org/1999/xlink" xmlns:svgjs="http://svgjs.com/svgjs" width="1000" height="1000"><rect width="1000" height="1000" rx="200" ry="200" fill="#ffffff"></rect><g transform="matrix(1,0,0,1,0,0)"><svg xmlns="http://www.w3.org/2000/svg" version="1.1" xmlns:xlink="http://www.w3.org/1999/xlink" xmlns:svgjs="http://svgjs.com/svgjs" width="100%" height="100%"><svg width="100%" height="100%" viewBox="0 0 96 96" version="1.1" xmlns="http://www.w3.org/2000/svg" xmlns:xlink="http://www.w3.org/1999/xlink" xml:space="preserve" xmlns:serif="http://www.serif.com/" style="fill-rule:evenodd;clip-rule:evenodd;stroke-linejoin:round;stroke-miterlimit:2;">
    <g transform="matrix(1,0,0,1,-2.296,-2.297)">
        <path d="M95.704,52.002C96.808,52.002 97.704,51.106 97.704,50.002C97.704,48.898 96.808,48.002 95.704,48.002L78.847,48.002L78.847,36.004L95.704,36.004C96.808,36.004 97.704,35.108 97.704,34.004C97.704,32.9 96.808,32.004 95.704,32.004L78.847,32.004L78.847,27.717C78.847,24.093 75.902,21.145 72.282,21.145L67.999,21.145L67.999,4.297C67.999,3.193 67.103,2.297 65.999,2.297C64.895,2.297 63.999,3.193 63.999,4.297L63.999,21.145L52,21.145L52,4.297C52,3.193 51.104,2.297 50,2.297C48.896,2.297 48,3.193 48,4.297L48,21.145L36.002,21.145L36.002,4.297C36.002,3.193 35.106,2.297 34.002,2.297C32.898,2.297 32.002,3.193 32.002,4.297L32.002,21.145L27.719,21.145C24.095,21.145 21.148,24.093 21.148,27.717L21.148,32.004L4.296,32.004C3.192,32.004 2.296,32.9 2.296,34.004C2.296,35.108 3.192,36.004 4.296,36.004L21.148,36.004L21.148,48.002L4.296,48.002C3.192,48.002 2.296,48.898 2.296,50.002C2.296,51.107 3.192,52.002 4.296,52.002L21.148,52.002L21.148,63.996L4.296,63.996C3.192,63.996 2.296,64.892 2.296,65.996C2.296,67.1 3.192,67.996 4.296,67.996L21.148,67.996L21.148,72.277C21.148,75.9 24.096,78.847 27.719,78.847L32.002,78.847L32.002,95.702C32.002,96.806 32.898,97.702 34.002,97.702C35.106,97.702 36.002,96.806 36.002,95.702L36.002,78.848L48,78.848L48,95.703C48,96.807 48.896,97.703 50,97.703C51.104,97.703 52,96.807 52,95.703L52,78.848L63.998,78.848L63.998,95.703C63.998,96.807 64.894,97.703 65.998,97.703C67.102,97.703 67.998,96.807 67.998,95.703L67.998,78.848L72.281,78.848C75.901,78.848 78.846,75.901 78.846,72.278L78.846,67.997L95.703,67.997C96.807,67.997 97.703,67.101 97.703,65.997C97.703,64.893 96.807,63.997 95.703,63.997L78.847,63.997L78.847,52.002L95.704,52.002ZM74.847,72.277C74.847,73.694 73.697,74.847 72.282,74.847L27.719,74.847C26.301,74.847 25.148,73.694 25.148,72.277L25.148,27.717C25.148,26.299 26.301,25.145 27.719,25.145L72.282,25.145C73.697,25.145 74.847,26.299 74.847,27.717L74.847,72.277Z" style="fill-rule:nonzero;"></path>
    </g>
    <g transform="matrix(1,0,0,1,-2.296,-2.297)">
        <path d="M64.625,56.673L64.625,51.75C64.625,50.646 63.729,49.75 62.625,49.75L52.75,49.75L52.75,44.474C55.985,43.592 58.375,40.636 58.375,37.124C58.375,32.919 54.954,29.499 50.75,29.499C46.546,29.499 43.125,32.919 43.125,37.124C43.125,40.636 45.514,43.592 48.75,44.474L48.75,49.75L36.375,49.75C35.271,49.75 34.375,50.646 34.375,51.75L34.375,55.499L31.875,55.499C30.771,55.499 29.875,56.395 29.875,57.499L29.875,66.499C29.875,67.603 30.771,68.499 31.875,68.499L40.875,68.499C41.979,68.499 42.875,67.603 42.875,66.499L42.875,57.499C42.875,56.395 41.979,55.499 40.875,55.499L38.375,55.499L38.375,53.75L60.625,53.75L60.625,56.669L55.709,61.587C54.928,62.368 54.928,63.634 55.709,64.415L61.209,69.915C61.6,70.306 62.111,70.501 62.623,70.501C63.135,70.501 63.646,70.306 64.037,69.915L69.539,64.415C69.914,64.04 70.125,63.531 70.125,63.001C70.125,62.471 69.914,61.962 69.539,61.587L64.625,56.673ZM38.875,64.499L33.875,64.499L33.875,59.499L38.875,59.499L38.875,64.499ZM47.125,37.124C47.125,35.125 48.751,33.499 50.75,33.499C52.75,33.499 54.375,35.125 54.375,37.124C54.375,39.123 52.749,40.749 50.75,40.749C48.75,40.749 47.125,39.123 47.125,37.124ZM62.623,65.673L59.951,63.001L62.623,60.328L65.296,63.001L62.623,65.673Z" style="fill-rule:nonzero;"></path>
    </g>
</svg></svg></g></svg>